<svg width="748" height="704" viewBox="0 0 748 704" fill="none" xmlns="http://www.w3.org/2000/svg">
<path d="M95.8075 407.711L89.5144 366.752L88.5293 335.744L88.5064 314" stroke="#202C54" stroke-width="12"/>
<path d="M282.518 595.588L238.02 576.863L209.202 560.727L189.496 550.345" stroke="#202C54" stroke-width="12"/>
<path d="M544.5 551L506 575L476.5 588.5L458 594.5" stroke="#202C54" stroke-width="12"/>
<path d="M650.564 324L650.366 356.243L650.247 375.8L645.059 395.39" stroke="#202C54" stroke-width="12"/>
<path d="M457.682 86.1836L506 107L549.342 136.534L580.238 165.056" stroke="#202C54" stroke-width="12"/>
<path d="M165.401 155.742L217.703 118.015L261.609 93.142L282.514 86.3896" stroke="#202C54" stroke-width="12"/>
<ellipse cx="128.5" cy="231.5" rx="94.5" ry="93.5" fill="#00B0F0"/>
<ellipse cx="624.5" cy="238.5" rx="94.5" ry="93.5" fill="#00B0F0"/>
<ellipse cx="366.5" cy="610.5" rx="94.5" ry="93.5" fill="#00B0F0"/>
<ellipse cx="129" cy="231.5" rx="81" ry="79.5" fill="#F5F5F5"/>
<ellipse cx="625" cy="238.5" rx="81" ry="79.5" fill="#F5F5F5"/>
<ellipse cx="367" cy="610.5" rx="81" ry="79.5" fill="#F5F5F5"/>
<ellipse cx="129" cy="231.5" rx="75" ry="73.5" fill="#7F7F7F"/>
<ellipse cx="625" cy="238.5" rx="75" ry="73.5" fill="#7F7F7F"/>
<ellipse cx="367" cy="610.5" rx="75" ry="73.5" fill="#7F7F7F"/>
<path d="M98.7614 239V224.455H100.523V237.438H107.284V239H98.7614ZM114.358 239.227C113.307 239.227 112.4 238.995 111.638 238.531C110.88 238.062 110.295 237.409 109.884 236.571C109.476 235.728 109.273 234.748 109.273 233.631C109.273 232.513 109.476 231.528 109.884 230.676C110.295 229.819 110.868 229.152 111.602 228.673C112.341 228.19 113.203 227.949 114.188 227.949C114.756 227.949 115.317 228.044 115.871 228.233C116.425 228.422 116.929 228.73 117.384 229.156C117.838 229.578 118.2 230.136 118.47 230.832C118.74 231.528 118.875 232.385 118.875 233.403V234.114H110.466V232.665H117.17C117.17 232.049 117.047 231.5 116.801 231.017C116.56 230.534 116.214 230.153 115.764 229.874C115.319 229.594 114.794 229.455 114.188 229.455C113.52 229.455 112.942 229.62 112.455 229.952C111.972 230.278 111.6 230.705 111.339 231.23C111.079 231.756 110.949 232.319 110.949 232.92V233.886C110.949 234.71 111.091 235.409 111.375 235.982C111.664 236.55 112.064 236.983 112.575 237.281C113.087 237.575 113.681 237.722 114.358 237.722C114.798 237.722 115.196 237.66 115.551 237.537C115.911 237.409 116.221 237.22 116.482 236.969C116.742 236.713 116.943 236.396 117.085 236.017L118.705 236.472C118.534 237.021 118.248 237.504 117.845 237.92C117.443 238.332 116.946 238.654 116.354 238.886C115.762 239.114 115.097 239.227 114.358 239.227ZM124.635 239.256C123.944 239.256 123.316 239.125 122.753 238.865C122.189 238.6 121.742 238.219 121.411 237.722C121.079 237.22 120.913 236.614 120.913 235.903C120.913 235.278 121.036 234.772 121.283 234.384C121.529 233.991 121.858 233.683 122.27 233.46C122.682 233.238 123.136 233.072 123.634 232.963C124.135 232.849 124.64 232.759 125.146 232.693C125.809 232.608 126.347 232.544 126.759 232.501C127.175 232.454 127.478 232.376 127.668 232.267C127.862 232.158 127.959 231.969 127.959 231.699V231.642C127.959 230.941 127.767 230.397 127.384 230.009C127.005 229.62 126.429 229.426 125.658 229.426C124.857 229.426 124.23 229.601 123.776 229.952C123.321 230.302 123.001 230.676 122.817 231.074L121.226 230.506C121.51 229.843 121.889 229.327 122.362 228.957C122.84 228.583 123.361 228.323 123.925 228.176C124.493 228.025 125.052 227.949 125.601 227.949C125.951 227.949 126.354 227.991 126.808 228.077C127.268 228.157 127.71 228.325 128.136 228.581C128.567 228.837 128.925 229.223 129.209 229.739C129.493 230.255 129.635 230.946 129.635 231.812V239H127.959V237.523H127.874C127.76 237.759 127.571 238.013 127.305 238.283C127.04 238.553 126.688 238.782 126.247 238.972C125.807 239.161 125.269 239.256 124.635 239.256ZM124.891 237.75C125.554 237.75 126.112 237.62 126.567 237.359C127.026 237.099 127.372 236.763 127.604 236.351C127.84 235.939 127.959 235.506 127.959 235.051V233.517C127.888 233.602 127.732 233.68 127.49 233.751C127.253 233.818 126.979 233.877 126.666 233.929C126.358 233.976 126.058 234.019 125.764 234.057C125.475 234.09 125.241 234.118 125.061 234.142C124.625 234.199 124.218 234.291 123.839 234.419C123.465 234.542 123.162 234.729 122.93 234.98C122.703 235.226 122.589 235.562 122.589 235.989C122.589 236.571 122.805 237.011 123.236 237.31C123.671 237.603 124.223 237.75 124.891 237.75ZM134.37 224.455V239H132.694V224.455H134.37ZM142.185 228.091V229.511H136.531V228.091H142.185ZM138.179 225.477H139.855V235.875C139.855 236.348 139.924 236.704 140.061 236.94C140.203 237.172 140.383 237.329 140.601 237.409C140.823 237.485 141.058 237.523 141.304 237.523C141.489 237.523 141.64 237.513 141.759 237.494C141.877 237.471 141.972 237.452 142.043 237.438L142.384 238.943C142.27 238.986 142.111 239.028 141.908 239.071C141.704 239.118 141.446 239.142 141.134 239.142C140.66 239.142 140.196 239.04 139.741 238.837C139.292 238.633 138.918 238.323 138.619 237.906C138.326 237.49 138.179 236.964 138.179 236.33V225.477ZM147.916 239.256C147.225 239.256 146.598 239.125 146.034 238.865C145.471 238.6 145.023 238.219 144.692 237.722C144.36 237.22 144.195 236.614 144.195 235.903C144.195 235.278 144.318 234.772 144.564 234.384C144.81 233.991 145.139 233.683 145.551 233.46C145.963 233.238 146.418 233.072 146.915 232.963C147.417 232.849 147.921 232.759 148.428 232.693C149.09 232.608 149.628 232.544 150.04 232.501C150.456 232.454 150.759 232.376 150.949 232.267C151.143 232.158 151.24 231.969 151.24 231.699V231.642C151.24 230.941 151.048 230.397 150.665 230.009C150.286 229.62 149.711 229.426 148.939 229.426C148.139 229.426 147.511 229.601 147.057 229.952C146.602 230.302 146.283 230.676 146.098 231.074L144.507 230.506C144.791 229.843 145.17 229.327 145.643 228.957C146.122 228.583 146.643 228.323 147.206 228.176C147.774 228.025 148.333 227.949 148.882 227.949C149.232 227.949 149.635 227.991 150.089 228.077C150.549 228.157 150.991 228.325 151.418 228.581C151.848 228.837 152.206 229.223 152.49 229.739C152.774 230.255 152.916 230.946 152.916 231.812V239H151.24V237.523H151.155C151.041 237.759 150.852 238.013 150.587 238.283C150.321 238.553 149.969 238.782 149.528 238.972C149.088 239.161 148.551 239.256 147.916 239.256ZM148.172 237.75C148.835 237.75 149.393 237.62 149.848 237.359C150.307 237.099 150.653 236.763 150.885 236.351C151.122 235.939 151.24 235.506 151.24 235.051V233.517C151.169 233.602 151.013 233.68 150.771 233.751C150.535 233.818 150.26 233.877 149.947 233.929C149.64 233.976 149.339 234.019 149.045 234.057C148.757 234.09 148.522 234.118 148.342 234.142C147.907 234.199 147.5 234.291 147.121 234.419C146.747 234.542 146.444 234.729 146.212 234.98C145.984 235.226 145.871 235.562 145.871 235.989C145.871 236.571 146.086 237.011 146.517 237.31C146.953 237.603 147.504 237.75 148.172 237.75ZM157.652 224.455V239H155.975V224.455H157.652Z" fill="#F5F5F5"/>
<path d="M321.761 618V603.455H323.523V609.932H331.278V603.455H333.04V618H331.278V611.494H323.523V618H321.761ZM340.771 618.227C339.786 618.227 338.922 617.993 338.178 617.524C337.44 617.055 336.862 616.4 336.445 615.557C336.033 614.714 335.827 613.729 335.827 612.602C335.827 611.466 336.033 610.474 336.445 609.626C336.862 608.779 337.44 608.121 338.178 607.652C338.922 607.183 339.786 606.949 340.771 606.949C341.755 606.949 342.617 607.183 343.356 607.652C344.099 608.121 344.677 608.779 345.089 609.626C345.505 610.474 345.714 611.466 345.714 612.602C345.714 613.729 345.505 614.714 345.089 615.557C344.677 616.4 344.099 617.055 343.356 617.524C342.617 617.993 341.755 618.227 340.771 618.227ZM340.771 616.722C341.519 616.722 342.134 616.53 342.617 616.146C343.1 615.763 343.458 615.259 343.69 614.634C343.922 614.009 344.038 613.331 344.038 612.602C344.038 611.873 343.922 611.194 343.69 610.564C343.458 609.934 343.1 609.425 342.617 609.037C342.134 608.649 341.519 608.455 340.771 608.455C340.022 608.455 339.407 608.649 338.924 609.037C338.441 609.425 338.084 609.934 337.852 610.564C337.62 611.194 337.504 611.873 337.504 612.602C337.504 613.331 337.62 614.009 337.852 614.634C338.084 615.259 338.441 615.763 338.924 616.146C339.407 616.53 340.022 616.722 340.771 616.722ZM349.949 611.438V618H348.272V607.091H349.892V608.795H350.034C350.289 608.241 350.678 607.796 351.199 607.46C351.719 607.119 352.392 606.949 353.216 606.949C353.954 606.949 354.6 607.1 355.154 607.403C355.708 607.702 356.139 608.156 356.447 608.767C356.755 609.373 356.909 610.14 356.909 611.068V618H355.233V611.182C355.233 610.325 355.01 609.657 354.565 609.179C354.12 608.696 353.509 608.455 352.733 608.455C352.198 608.455 351.719 608.571 351.298 608.803C350.881 609.035 350.552 609.373 350.311 609.818C350.069 610.263 349.949 610.803 349.949 611.438ZM359.972 618V607.091H361.591V608.739H361.705C361.903 608.199 362.263 607.761 362.784 607.425C363.305 607.089 363.892 606.92 364.545 606.92C364.669 606.92 364.822 606.923 365.007 606.928C365.192 606.932 365.331 606.939 365.426 606.949V608.653C365.369 608.639 365.239 608.618 365.036 608.589C364.837 608.556 364.626 608.54 364.403 608.54C363.873 608.54 363.4 608.651 362.983 608.874C362.571 609.091 362.244 609.394 362.003 609.783C361.766 610.166 361.648 610.604 361.648 611.097V618H359.972ZM370.623 618.256C369.932 618.256 369.305 618.125 368.741 617.865C368.178 617.6 367.73 617.219 367.399 616.722C367.067 616.22 366.902 615.614 366.902 614.903C366.902 614.278 367.025 613.772 367.271 613.384C367.517 612.991 367.846 612.683 368.258 612.46C368.67 612.238 369.125 612.072 369.622 611.963C370.124 611.849 370.628 611.759 371.135 611.693C371.797 611.608 372.335 611.544 372.747 611.501C373.163 611.454 373.467 611.376 373.656 611.267C373.85 611.158 373.947 610.969 373.947 610.699V610.642C373.947 609.941 373.755 609.397 373.372 609.009C372.993 608.62 372.418 608.426 371.646 608.426C370.846 608.426 370.218 608.601 369.764 608.952C369.309 609.302 368.99 609.676 368.805 610.074L367.214 609.506C367.498 608.843 367.877 608.327 368.35 607.957C368.829 607.583 369.35 607.323 369.913 607.176C370.481 607.025 371.04 606.949 371.589 606.949C371.94 606.949 372.342 606.991 372.797 607.077C373.256 607.157 373.699 607.325 374.125 607.581C374.556 607.837 374.913 608.223 375.197 608.739C375.481 609.255 375.623 609.946 375.623 610.812V618H373.947V616.523H373.862C373.748 616.759 373.559 617.013 373.294 617.283C373.029 617.553 372.676 617.782 372.235 617.972C371.795 618.161 371.258 618.256 370.623 618.256ZM370.879 616.75C371.542 616.75 372.1 616.62 372.555 616.359C373.014 616.099 373.36 615.763 373.592 615.351C373.829 614.939 373.947 614.506 373.947 614.051V612.517C373.876 612.602 373.72 612.68 373.478 612.751C373.242 612.818 372.967 612.877 372.654 612.929C372.347 612.976 372.046 613.019 371.752 613.057C371.464 613.09 371.229 613.118 371.049 613.142C370.614 613.199 370.207 613.291 369.828 613.419C369.454 613.542 369.151 613.729 368.919 613.98C368.691 614.226 368.578 614.562 368.578 614.989C368.578 615.571 368.793 616.011 369.224 616.31C369.66 616.603 370.211 616.75 370.879 616.75ZM382.802 618.227C381.893 618.227 381.09 617.998 380.394 617.538C379.698 617.074 379.154 616.421 378.761 615.578C378.368 614.731 378.171 613.729 378.171 612.574C378.171 611.428 378.368 610.434 378.761 609.591C379.154 608.748 379.701 608.097 380.401 607.638C381.102 607.179 381.912 606.949 382.83 606.949C383.54 606.949 384.102 607.067 384.513 607.304C384.93 607.536 385.247 607.801 385.465 608.099C385.688 608.393 385.861 608.634 385.984 608.824H386.126V603.455H387.802V618H386.183V616.324H385.984C385.861 616.523 385.685 616.774 385.458 617.077C385.231 617.375 384.906 617.643 384.485 617.879C384.064 618.111 383.503 618.227 382.802 618.227ZM383.029 616.722C383.701 616.722 384.27 616.546 384.734 616.196C385.198 615.841 385.55 615.351 385.792 614.726C386.033 614.096 386.154 613.369 386.154 612.545C386.154 611.731 386.036 611.018 385.799 610.408C385.562 609.792 385.212 609.314 384.748 608.973C384.284 608.627 383.711 608.455 383.029 608.455C382.319 608.455 381.727 608.637 381.254 609.001C380.785 609.361 380.432 609.851 380.195 610.472C379.963 611.087 379.847 611.778 379.847 612.545C379.847 613.322 379.966 614.027 380.202 614.662C380.444 615.292 380.799 615.794 381.268 616.168C381.741 616.537 382.328 616.722 383.029 616.722ZM395.678 618.227C394.627 618.227 393.72 617.995 392.958 617.531C392.201 617.062 391.616 616.409 391.204 615.571C390.797 614.728 390.593 613.748 390.593 612.631C390.593 611.513 390.797 610.528 391.204 609.676C391.616 608.819 392.189 608.152 392.923 607.673C393.661 607.19 394.523 606.949 395.508 606.949C396.076 606.949 396.637 607.044 397.191 607.233C397.745 607.422 398.249 607.73 398.704 608.156C399.158 608.578 399.521 609.136 399.79 609.832C400.06 610.528 400.195 611.385 400.195 612.403V613.114H391.786V611.665H398.491C398.491 611.049 398.368 610.5 398.121 610.017C397.88 609.534 397.534 609.153 397.085 608.874C396.639 608.594 396.114 608.455 395.508 608.455C394.84 608.455 394.263 608.62 393.775 608.952C393.292 609.278 392.92 609.705 392.66 610.23C392.399 610.756 392.269 611.319 392.269 611.92V612.886C392.269 613.71 392.411 614.409 392.695 614.982C392.984 615.55 393.384 615.983 393.896 616.281C394.407 616.575 395.001 616.722 395.678 616.722C396.119 616.722 396.516 616.66 396.871 616.537C397.231 616.409 397.541 616.22 397.802 615.969C398.062 615.713 398.263 615.396 398.406 615.017L400.025 615.472C399.854 616.021 399.568 616.504 399.165 616.92C398.763 617.332 398.266 617.654 397.674 617.886C397.082 618.114 396.417 618.227 395.678 618.227ZM402.433 618V616.722L408.626 608.767V608.653H402.631V607.091H410.785V608.426L404.762 616.324V616.438H410.984V618H402.433Z" fill="#F5F5F5"/>
<path d="M585.716 235.091C585.631 234.371 585.285 233.812 584.679 233.415C584.073 233.017 583.33 232.818 582.449 232.818C581.805 232.818 581.241 232.922 580.759 233.131C580.28 233.339 579.906 233.625 579.636 233.99C579.371 234.355 579.239 234.769 579.239 235.233C579.239 235.621 579.331 235.955 579.516 236.234C579.705 236.509 579.946 236.739 580.24 236.923C580.534 237.103 580.841 237.252 581.163 237.371C581.485 237.484 581.781 237.577 582.051 237.648L583.528 238.045C583.907 238.145 584.329 238.282 584.793 238.457C585.261 238.633 585.709 238.872 586.135 239.175C586.566 239.473 586.921 239.857 587.2 240.325C587.48 240.794 587.619 241.369 587.619 242.051C587.619 242.837 587.413 243.547 587.001 244.182C586.594 244.816 585.998 245.321 585.212 245.695C584.43 246.069 583.481 246.256 582.364 246.256C581.322 246.256 580.42 246.088 579.658 245.751C578.9 245.415 578.304 244.946 577.868 244.345C577.437 243.744 577.193 243.045 577.136 242.25H578.955C579.002 242.799 579.187 243.254 579.509 243.614C579.835 243.969 580.247 244.234 580.744 244.409C581.246 244.58 581.786 244.665 582.364 244.665C583.036 244.665 583.64 244.556 584.175 244.338C584.71 244.116 585.134 243.808 585.446 243.415C585.759 243.017 585.915 242.553 585.915 242.023C585.915 241.54 585.78 241.147 585.51 240.844C585.24 240.541 584.885 240.295 584.445 240.105C584.004 239.916 583.528 239.75 583.017 239.608L581.227 239.097C580.091 238.77 579.191 238.304 578.528 237.697C577.866 237.091 577.534 236.298 577.534 235.318C577.534 234.504 577.754 233.794 578.195 233.188C578.64 232.577 579.236 232.103 579.984 231.767C580.737 231.426 581.578 231.256 582.506 231.256C583.443 231.256 584.277 231.424 585.006 231.76C585.735 232.091 586.313 232.546 586.739 233.124C587.17 233.701 587.397 234.357 587.42 235.091H585.716ZM594.862 246.227C593.811 246.227 592.904 245.995 592.142 245.531C591.384 245.062 590.799 244.409 590.387 243.571C589.98 242.728 589.777 241.748 589.777 240.631C589.777 239.513 589.98 238.528 590.387 237.676C590.799 236.819 591.372 236.152 592.106 235.673C592.845 235.19 593.707 234.949 594.691 234.949C595.26 234.949 595.821 235.044 596.375 235.233C596.929 235.422 597.433 235.73 597.887 236.156C598.342 236.578 598.704 237.136 598.974 237.832C599.244 238.528 599.379 239.385 599.379 240.403V241.114H590.97V239.665H597.674C597.674 239.049 597.551 238.5 597.305 238.017C597.064 237.534 596.718 237.153 596.268 236.874C595.823 236.594 595.297 236.455 594.691 236.455C594.024 236.455 593.446 236.62 592.958 236.952C592.475 237.278 592.104 237.705 591.843 238.23C591.583 238.756 591.453 239.319 591.453 239.92V240.886C591.453 241.71 591.595 242.409 591.879 242.982C592.168 243.55 592.568 243.983 593.079 244.281C593.591 244.575 594.185 244.722 594.862 244.722C595.302 244.722 595.7 244.66 596.055 244.537C596.415 244.409 596.725 244.22 596.985 243.969C597.246 243.713 597.447 243.396 597.589 243.017L599.208 243.472C599.038 244.021 598.752 244.504 598.349 244.92C597.947 245.332 597.449 245.654 596.858 245.886C596.266 246.114 595.6 246.227 594.862 246.227ZM606.332 250.318C605.522 250.318 604.826 250.214 604.244 250.006C603.662 249.802 603.176 249.532 602.788 249.196C602.404 248.865 602.099 248.509 601.872 248.131L603.207 247.193C603.359 247.392 603.55 247.619 603.782 247.875C604.014 248.135 604.332 248.36 604.734 248.55C605.141 248.744 605.674 248.841 606.332 248.841C607.213 248.841 607.94 248.628 608.512 248.202C609.085 247.776 609.372 247.108 609.372 246.199V243.983H609.23C609.107 244.182 608.931 244.428 608.704 244.722C608.482 245.01 608.16 245.268 607.738 245.496C607.322 245.718 606.758 245.83 606.048 245.83C605.167 245.83 604.377 245.621 603.676 245.205C602.98 244.788 602.428 244.182 602.021 243.386C601.618 242.591 601.417 241.625 601.417 240.489C601.417 239.371 601.614 238.398 602.007 237.57C602.4 236.736 602.947 236.092 603.647 235.638C604.348 235.179 605.158 234.949 606.076 234.949C606.787 234.949 607.35 235.067 607.767 235.304C608.188 235.536 608.51 235.801 608.733 236.099C608.96 236.393 609.135 236.634 609.258 236.824H609.429V235.091H611.048V246.312C611.048 247.25 610.835 248.012 610.409 248.599C609.987 249.191 609.419 249.625 608.704 249.899C607.994 250.179 607.203 250.318 606.332 250.318ZM606.275 244.324C606.948 244.324 607.516 244.17 607.98 243.862C608.444 243.554 608.797 243.112 609.038 242.534C609.279 241.956 609.4 241.265 609.4 240.46C609.4 239.674 609.282 238.981 609.045 238.379C608.808 237.778 608.458 237.307 607.994 236.966C607.53 236.625 606.957 236.455 606.275 236.455C605.565 236.455 604.973 236.634 604.5 236.994C604.031 237.354 603.678 237.837 603.441 238.443C603.209 239.049 603.093 239.722 603.093 240.46C603.093 241.218 603.212 241.888 603.449 242.47C603.69 243.048 604.045 243.502 604.514 243.834C604.987 244.161 605.574 244.324 606.275 244.324ZM620.991 241.54V235.091H622.667V246H620.991V244.153H620.877C620.622 244.707 620.224 245.179 619.684 245.567C619.145 245.95 618.463 246.142 617.639 246.142C616.957 246.142 616.351 245.993 615.821 245.695C615.29 245.392 614.874 244.937 614.571 244.331C614.268 243.72 614.116 242.951 614.116 242.023V235.091H615.792V241.909C615.792 242.705 616.015 243.339 616.46 243.812C616.91 244.286 617.483 244.523 618.179 244.523C618.595 244.523 619.019 244.416 619.45 244.203C619.886 243.99 620.25 243.663 620.544 243.223C620.842 242.783 620.991 242.222 620.991 241.54ZM625.737 246V235.091H627.357V236.739H627.47C627.669 236.199 628.029 235.761 628.55 235.425C629.071 235.089 629.658 234.92 630.311 234.92C630.434 234.92 630.588 234.923 630.773 234.928C630.957 234.932 631.097 234.939 631.192 234.949V236.653C631.135 236.639 631.005 236.618 630.801 236.589C630.602 236.556 630.392 236.54 630.169 236.54C629.639 236.54 629.165 236.651 628.749 236.874C628.337 237.091 628.01 237.394 627.768 237.783C627.532 238.166 627.413 238.604 627.413 239.097V246H625.737ZM633.179 246V235.091H634.855V246H633.179ZM634.031 233.273C633.704 233.273 633.422 233.161 633.186 232.939C632.954 232.716 632.838 232.449 632.838 232.136C632.838 231.824 632.954 231.556 633.186 231.334C633.422 231.111 633.704 231 634.031 231C634.358 231 634.637 231.111 634.869 231.334C635.106 231.556 635.224 231.824 635.224 232.136C635.224 232.449 635.106 232.716 634.869 232.939C634.637 233.161 634.358 233.273 634.031 233.273ZM642.044 246.227C641.135 246.227 640.332 245.998 639.636 245.538C638.94 245.074 638.396 244.421 638.003 243.578C637.61 242.731 637.413 241.729 637.413 240.574C637.413 239.428 637.61 238.434 638.003 237.591C638.396 236.748 638.943 236.097 639.643 235.638C640.344 235.179 641.154 234.949 642.072 234.949C642.783 234.949 643.344 235.067 643.756 235.304C644.172 235.536 644.49 235.801 644.707 236.099C644.93 236.393 645.103 236.634 645.226 236.824H645.368V231.455H647.044V246H645.425V244.324H645.226C645.103 244.523 644.928 244.774 644.7 245.077C644.473 245.375 644.149 245.643 643.727 245.879C643.306 246.111 642.745 246.227 642.044 246.227ZM642.271 244.722C642.944 244.722 643.512 244.546 643.976 244.196C644.44 243.841 644.793 243.351 645.034 242.726C645.276 242.096 645.396 241.369 645.396 240.545C645.396 239.731 645.278 239.018 645.041 238.408C644.804 237.792 644.454 237.314 643.99 236.973C643.526 236.627 642.953 236.455 642.271 236.455C641.561 236.455 640.969 236.637 640.496 237.001C640.027 237.361 639.674 237.851 639.438 238.472C639.205 239.087 639.089 239.778 639.089 240.545C639.089 241.322 639.208 242.027 639.445 242.662C639.686 243.292 640.041 243.794 640.51 244.168C640.983 244.537 641.571 244.722 642.271 244.722ZM653.557 246.256C652.866 246.256 652.238 246.125 651.675 245.865C651.111 245.6 650.664 245.219 650.332 244.722C650.001 244.22 649.835 243.614 649.835 242.903C649.835 242.278 649.958 241.772 650.205 241.384C650.451 240.991 650.78 240.683 651.192 240.46C651.604 240.238 652.058 240.072 652.555 239.963C653.057 239.849 653.562 239.759 654.068 239.693C654.731 239.608 655.268 239.544 655.68 239.501C656.097 239.454 656.4 239.376 656.589 239.267C656.784 239.158 656.881 238.969 656.881 238.699V238.642C656.881 237.941 656.689 237.397 656.305 237.009C655.927 236.62 655.351 236.426 654.58 236.426C653.779 236.426 653.152 236.601 652.697 236.952C652.243 237.302 651.923 237.676 651.739 238.074L650.148 237.506C650.432 236.843 650.811 236.327 651.284 235.957C651.762 235.583 652.283 235.323 652.847 235.176C653.415 235.025 653.973 234.949 654.523 234.949C654.873 234.949 655.276 234.991 655.73 235.077C656.189 235.157 656.632 235.325 657.058 235.581C657.489 235.837 657.847 236.223 658.131 236.739C658.415 237.255 658.557 237.946 658.557 238.812V246H656.881V244.523H656.795C656.682 244.759 656.492 245.013 656.227 245.283C655.962 245.553 655.609 245.782 655.169 245.972C654.729 246.161 654.191 246.256 653.557 246.256ZM653.812 244.75C654.475 244.75 655.034 244.62 655.489 244.359C655.948 244.099 656.294 243.763 656.526 243.351C656.762 242.939 656.881 242.506 656.881 242.051V240.517C656.81 240.602 656.653 240.68 656.412 240.751C656.175 240.818 655.901 240.877 655.588 240.929C655.28 240.976 654.98 241.019 654.686 241.057C654.397 241.09 654.163 241.118 653.983 241.142C653.547 241.199 653.14 241.291 652.761 241.419C652.387 241.542 652.084 241.729 651.852 241.98C651.625 242.226 651.511 242.562 651.511 242.989C651.511 243.571 651.727 244.011 652.158 244.31C652.593 244.603 653.145 244.75 653.812 244.75ZM665.735 246.227C664.826 246.227 664.024 245.998 663.328 245.538C662.632 245.074 662.087 244.421 661.694 243.578C661.301 242.731 661.105 241.729 661.105 240.574C661.105 239.428 661.301 238.434 661.694 237.591C662.087 236.748 662.634 236.097 663.335 235.638C664.036 235.179 664.845 234.949 665.764 234.949C666.474 234.949 667.035 235.067 667.447 235.304C667.864 235.536 668.181 235.801 668.399 236.099C668.621 236.393 668.794 236.634 668.917 236.824H669.059V231.455H670.735V246H669.116V244.324H668.917C668.794 244.523 668.619 244.774 668.392 245.077C668.164 245.375 667.84 245.643 667.419 245.879C666.997 246.111 666.436 246.227 665.735 246.227ZM665.963 244.722C666.635 244.722 667.203 244.546 667.667 244.196C668.131 243.841 668.484 243.351 668.725 242.726C668.967 242.096 669.088 241.369 669.088 240.545C669.088 239.731 668.969 239.018 668.733 238.408C668.496 237.792 668.145 237.314 667.681 236.973C667.217 236.627 666.645 236.455 665.963 236.455C665.252 236.455 664.661 236.637 664.187 237.001C663.718 237.361 663.366 237.851 663.129 238.472C662.897 239.087 662.781 239.778 662.781 240.545C662.781 241.322 662.899 242.027 663.136 242.662C663.377 243.292 663.733 243.794 664.201 244.168C664.675 244.537 665.262 244.722 665.963 244.722Z" fill="#F5F5F5"/>
<ellipse cx="21" cy="155.5" rx="21" ry="20.5" fill="#00B0F0"/>
<ellipse cx="36.5" cy="557.5" rx="23.5" ry="20.5" fill="#222A35"/>
<ellipse cx="714.5" cy="557.5" rx="19.5" ry="20.5" fill="#222A35"/>
<ellipse cx="727" cy="165" rx="21" ry="20" fill="#00B0F0"/>
<ellipse cx="371" cy="96" rx="95" ry="96" fill="#222A35"/>
<ellipse cx="133" cy="483" rx="96" ry="95" fill="#222A35"/>
<ellipse cx="611" cy="486" rx="95" ry="98" fill="#222A35"/>
<ellipse cx="373" cy="96.5" rx="81" ry="79.5" fill="#F5F5F5"/>
<ellipse cx="133" cy="482.5" rx="81" ry="79.5" fill="#F5F5F5"/>
<ellipse cx="611" cy="485.5" rx="81" ry="79.5" fill="#F5F5F5"/>
<ellipse cx="373" cy="95.5" rx="75" ry="73.5" fill="#222A35"/>
<ellipse cx="133" cy="484.5" rx="75" ry="73.5" fill="#222A35"/>
<ellipse cx="611" cy="485.5" rx="75" ry="73.5" fill="#222A35"/>
<path d="M348.466 97H346.705C346.6 96.4934 346.418 96.0483 346.158 95.6648C345.902 95.2812 345.589 94.9593 345.22 94.6989C344.856 94.4337 344.451 94.2348 344.006 94.1023C343.561 93.9697 343.097 93.9034 342.614 93.9034C341.733 93.9034 340.935 94.1259 340.22 94.571C339.51 95.0161 338.944 95.6719 338.523 96.5384C338.106 97.4048 337.898 98.4678 337.898 99.7273C337.898 100.987 338.106 102.05 338.523 102.916C338.944 103.783 339.51 104.438 340.22 104.884C340.935 105.329 341.733 105.551 342.614 105.551C343.097 105.551 343.561 105.485 344.006 105.352C344.451 105.22 344.856 105.023 345.22 104.763C345.589 104.498 345.902 104.173 346.158 103.79C346.418 103.402 346.6 102.956 346.705 102.455H348.466C348.333 103.198 348.092 103.863 347.741 104.45C347.391 105.037 346.955 105.537 346.435 105.949C345.914 106.356 345.329 106.666 344.68 106.879C344.036 107.092 343.348 107.199 342.614 107.199C341.373 107.199 340.27 106.896 339.304 106.29C338.338 105.684 337.578 104.822 337.024 103.705C336.47 102.587 336.193 101.261 336.193 99.7273C336.193 98.1932 336.47 96.8674 337.024 95.75C337.578 94.6326 338.338 93.7708 339.304 93.1648C340.27 92.5587 341.373 92.2557 342.614 92.2557C343.348 92.2557 344.036 92.3622 344.68 92.5753C345.329 92.7884 345.914 93.1009 346.435 93.5128C346.955 93.92 347.391 94.4171 347.741 95.0043C348.092 95.5866 348.333 96.2519 348.466 97ZM354.295 107.256C353.604 107.256 352.976 107.125 352.413 106.865C351.85 106.6 351.402 106.219 351.071 105.722C350.739 105.22 350.574 104.614 350.574 103.903C350.574 103.278 350.697 102.772 350.943 102.384C351.189 101.991 351.518 101.683 351.93 101.46C352.342 101.238 352.797 101.072 353.294 100.963C353.796 100.849 354.3 100.759 354.806 100.693C355.469 100.608 356.007 100.544 356.419 100.501C356.835 100.454 357.138 100.376 357.328 100.267C357.522 100.158 357.619 99.9687 357.619 99.6989V99.642C357.619 98.9413 357.427 98.3968 357.044 98.0085C356.665 97.6203 356.09 97.4261 355.318 97.4261C354.518 97.4261 353.89 97.6013 353.436 97.9517C352.981 98.3021 352.662 98.6761 352.477 99.0739L350.886 98.5057C351.17 97.8428 351.549 97.3267 352.022 96.9574C352.501 96.5833 353.021 96.3229 353.585 96.1761C354.153 96.0246 354.712 95.9489 355.261 95.9489C355.611 95.9489 356.014 95.9915 356.468 96.0767C356.928 96.1572 357.37 96.3253 357.797 96.581C358.227 96.8366 358.585 97.2225 358.869 97.7386C359.153 98.2547 359.295 98.946 359.295 99.8125V107H357.619V105.523H357.534C357.42 105.759 357.231 106.013 356.966 106.283C356.7 106.553 356.348 106.782 355.907 106.972C355.467 107.161 354.93 107.256 354.295 107.256ZM354.551 105.75C355.214 105.75 355.772 105.62 356.227 105.359C356.686 105.099 357.032 104.763 357.264 104.351C357.501 103.939 357.619 103.506 357.619 103.051V101.517C357.548 101.602 357.392 101.68 357.15 101.751C356.913 101.818 356.639 101.877 356.326 101.929C356.019 101.976 355.718 102.019 355.424 102.057C355.136 102.09 354.901 102.118 354.721 102.142C354.286 102.199 353.878 102.291 353.5 102.419C353.126 102.542 352.823 102.729 352.591 102.98C352.363 103.226 352.25 103.562 352.25 103.989C352.25 104.571 352.465 105.011 352.896 105.31C353.332 105.603 353.883 105.75 354.551 105.75ZM364.031 92.4545V107H362.354V92.4545H364.031ZM367.1 107V96.0909H368.777V107H367.1ZM367.953 94.2727C367.626 94.2727 367.344 94.1615 367.108 93.9389C366.876 93.7164 366.76 93.4489 366.76 93.1364C366.76 92.8239 366.876 92.5563 367.108 92.3338C367.344 92.1113 367.626 92 367.953 92C368.279 92 368.559 92.1113 368.791 92.3338C369.028 92.5563 369.146 92.8239 369.146 93.1364C369.146 93.4489 369.028 93.7164 368.791 93.9389C368.559 94.1615 368.279 94.2727 367.953 94.2727ZM375.966 107.227C375.057 107.227 374.254 106.998 373.558 106.538C372.862 106.074 372.318 105.421 371.925 104.578C371.532 103.731 371.335 102.729 371.335 101.574C371.335 100.428 371.532 99.4337 371.925 98.5909C372.318 97.7481 372.865 97.0971 373.565 96.6378C374.266 96.1785 375.076 95.9489 375.994 95.9489C376.705 95.9489 377.266 96.0672 377.678 96.304C378.094 96.536 378.411 96.8011 378.629 97.0994C378.852 97.393 379.025 97.6345 379.148 97.8239H379.29V92.4545H380.966V107H379.347V105.324H379.148C379.025 105.523 378.849 105.774 378.622 106.077C378.395 106.375 378.071 106.643 377.649 106.879C377.228 107.111 376.667 107.227 375.966 107.227ZM376.193 105.722C376.866 105.722 377.434 105.546 377.898 105.196C378.362 104.841 378.714 104.351 378.956 103.726C379.197 103.096 379.318 102.369 379.318 101.545C379.318 100.731 379.2 100.018 378.963 99.4077C378.726 98.7921 378.376 98.3139 377.912 97.973C377.448 97.6274 376.875 97.4545 376.193 97.4545C375.483 97.4545 374.891 97.6368 374.418 98.0014C373.949 98.3613 373.596 98.8513 373.359 99.4716C373.127 100.087 373.011 100.778 373.011 101.545C373.011 102.322 373.13 103.027 373.366 103.662C373.608 104.292 373.963 104.794 374.432 105.168C374.905 105.537 375.492 105.722 376.193 105.722ZM387.479 107.256C386.787 107.256 386.16 107.125 385.597 106.865C385.033 106.6 384.586 106.219 384.254 105.722C383.923 105.22 383.757 104.614 383.757 103.903C383.757 103.278 383.88 102.772 384.126 102.384C384.373 101.991 384.702 101.683 385.114 101.46C385.526 101.238 385.98 101.072 386.477 100.963C386.979 100.849 387.483 100.759 387.99 100.693C388.653 100.608 389.19 100.544 389.602 100.501C390.019 100.454 390.322 100.376 390.511 100.267C390.705 100.158 390.803 99.9687 390.803 99.6989V99.642C390.803 98.9413 390.611 98.3968 390.227 98.0085C389.848 97.6203 389.273 97.4261 388.501 97.4261C387.701 97.4261 387.074 97.6013 386.619 97.9517C386.165 98.3021 385.845 98.6761 385.661 99.0739L384.07 98.5057C384.354 97.8428 384.732 97.3267 385.206 96.9574C385.684 96.5833 386.205 96.3229 386.768 96.1761C387.337 96.0246 387.895 95.9489 388.445 95.9489C388.795 95.9489 389.197 95.9915 389.652 96.0767C390.111 96.1572 390.554 96.3253 390.98 96.581C391.411 96.8366 391.768 97.2225 392.053 97.7386C392.337 98.2547 392.479 98.946 392.479 99.8125V107H390.803V105.523H390.717C390.604 105.759 390.414 106.013 390.149 106.283C389.884 106.553 389.531 106.782 389.091 106.972C388.651 107.161 388.113 107.256 387.479 107.256ZM387.734 105.75C388.397 105.75 388.956 105.62 389.411 105.359C389.87 105.099 390.215 104.763 390.447 104.351C390.684 103.939 390.803 103.506 390.803 103.051V101.517C390.732 101.602 390.575 101.68 390.334 101.751C390.097 101.818 389.822 101.877 389.51 101.929C389.202 101.976 388.902 102.019 388.608 102.057C388.319 102.09 388.085 102.118 387.905 102.142C387.469 102.199 387.062 102.291 386.683 102.419C386.309 102.542 386.006 102.729 385.774 102.98C385.547 103.226 385.433 103.562 385.433 103.989C385.433 104.571 385.649 105.011 386.08 105.31C386.515 105.603 387.067 105.75 387.734 105.75ZM399.657 107.227C398.748 107.227 397.946 106.998 397.25 106.538C396.554 106.074 396.009 105.421 395.616 104.578C395.223 103.731 395.027 102.729 395.027 101.574C395.027 100.428 395.223 99.4337 395.616 98.5909C396.009 97.7481 396.556 97.0971 397.257 96.6378C397.958 96.1785 398.767 95.9489 399.686 95.9489C400.396 95.9489 400.957 96.0672 401.369 96.304C401.786 96.536 402.103 96.8011 402.321 97.0994C402.543 97.393 402.716 97.6345 402.839 97.8239H402.981V92.4545H404.657V107H403.038V105.324H402.839C402.716 105.523 402.541 105.774 402.314 106.077C402.086 106.375 401.762 106.643 401.341 106.879C400.919 107.111 400.358 107.227 399.657 107.227ZM399.885 105.722C400.557 105.722 401.125 105.546 401.589 105.196C402.053 104.841 402.406 104.351 402.647 103.726C402.889 103.096 403.01 102.369 403.01 101.545C403.01 100.731 402.891 100.018 402.654 99.4077C402.418 98.7921 402.067 98.3139 401.603 97.973C401.139 97.6274 400.566 97.4545 399.885 97.4545C399.174 97.4545 398.583 97.6368 398.109 98.0014C397.64 98.3613 397.288 98.8513 397.051 99.4716C396.819 100.087 396.703 100.778 396.703 101.545C396.703 102.322 396.821 103.027 397.058 103.662C397.299 104.292 397.654 104.794 398.123 105.168C398.597 105.537 399.184 105.722 399.885 105.722Z" fill="#F5F5F5"/>
<path d="M551.409 491V479.364H555.341C556.25 479.364 556.996 479.519 557.58 479.83C558.163 480.136 558.595 480.559 558.875 481.097C559.155 481.634 559.295 482.246 559.295 482.932C559.295 483.617 559.155 484.225 558.875 484.756C558.595 485.286 558.165 485.703 557.585 486.006C557.006 486.305 556.265 486.455 555.364 486.455H552.182V485.182H555.318C555.939 485.182 556.439 485.091 556.818 484.909C557.201 484.727 557.477 484.47 557.648 484.136C557.822 483.799 557.909 483.398 557.909 482.932C557.909 482.466 557.822 482.059 557.648 481.71C557.473 481.362 557.195 481.093 556.812 480.903C556.43 480.71 555.924 480.614 555.295 480.614H552.818V491H551.409ZM556.886 485.773L559.75 491H558.114L555.295 485.773H556.886ZM565.027 491.182C564.186 491.182 563.461 490.996 562.851 490.625C562.245 490.25 561.777 489.727 561.447 489.057C561.122 488.383 560.959 487.598 560.959 486.705C560.959 485.811 561.122 485.023 561.447 484.341C561.777 483.655 562.235 483.121 562.822 482.739C563.413 482.352 564.103 482.159 564.891 482.159C565.345 482.159 565.794 482.235 566.237 482.386C566.68 482.538 567.084 482.784 567.447 483.125C567.811 483.462 568.101 483.909 568.317 484.466C568.533 485.023 568.641 485.708 568.641 486.523V487.091H561.913V485.932H567.277C567.277 485.439 567.179 485 566.982 484.614C566.788 484.227 566.512 483.922 566.152 483.699C565.796 483.475 565.375 483.364 564.891 483.364C564.357 483.364 563.894 483.496 563.504 483.761C563.118 484.023 562.821 484.364 562.612 484.784C562.404 485.205 562.3 485.655 562.3 486.136V486.909C562.3 487.568 562.413 488.127 562.641 488.585C562.872 489.04 563.192 489.386 563.601 489.625C564.01 489.86 564.485 489.977 565.027 489.977C565.379 489.977 565.697 489.928 565.982 489.83C566.269 489.727 566.518 489.576 566.726 489.375C566.934 489.17 567.095 488.917 567.209 488.614L568.504 488.977C568.368 489.417 568.139 489.803 567.817 490.136C567.495 490.466 567.097 490.723 566.624 490.909C566.15 491.091 565.618 491.182 565.027 491.182ZM576.862 484.227L575.658 484.568C575.582 484.367 575.47 484.172 575.322 483.983C575.179 483.79 574.982 483.631 574.732 483.506C574.482 483.381 574.161 483.318 573.771 483.318C573.237 483.318 572.792 483.441 572.436 483.688C572.084 483.93 571.908 484.239 571.908 484.614C571.908 484.947 572.029 485.21 572.271 485.403C572.514 485.597 572.893 485.758 573.408 485.886L574.703 486.205C575.483 486.394 576.065 486.684 576.447 487.074C576.83 487.46 577.021 487.958 577.021 488.568C577.021 489.068 576.877 489.515 576.589 489.909C576.305 490.303 575.908 490.614 575.396 490.841C574.885 491.068 574.29 491.182 573.612 491.182C572.722 491.182 571.985 490.989 571.402 490.602C570.819 490.216 570.449 489.652 570.294 488.909L571.567 488.591C571.688 489.061 571.917 489.413 572.254 489.648C572.595 489.883 573.04 490 573.589 490C574.214 490 574.711 489.867 575.078 489.602C575.449 489.333 575.635 489.011 575.635 488.636C575.635 488.333 575.529 488.08 575.317 487.875C575.105 487.667 574.779 487.511 574.339 487.409L572.885 487.068C572.086 486.879 571.499 486.585 571.124 486.188C570.752 485.786 570.567 485.284 570.567 484.682C570.567 484.189 570.705 483.754 570.982 483.375C571.262 482.996 571.643 482.699 572.124 482.483C572.608 482.267 573.158 482.159 573.771 482.159C574.635 482.159 575.313 482.348 575.805 482.727C576.302 483.106 576.654 483.606 576.862 484.227ZM579.04 494.273V482.273H580.335V483.659H580.494C580.593 483.508 580.729 483.314 580.903 483.08C581.081 482.841 581.335 482.629 581.665 482.443C581.998 482.254 582.449 482.159 583.017 482.159C583.752 482.159 584.4 482.343 584.96 482.71C585.521 483.078 585.958 483.598 586.273 484.273C586.587 484.947 586.744 485.742 586.744 486.659C586.744 487.583 586.587 488.384 586.273 489.062C585.958 489.737 585.523 490.259 584.966 490.631C584.409 490.998 583.767 491.182 583.04 491.182C582.479 491.182 582.03 491.089 581.693 490.903C581.356 490.714 581.097 490.5 580.915 490.261C580.733 490.019 580.593 489.818 580.494 489.659H580.381V494.273H579.04ZM580.358 486.636C580.358 487.295 580.455 487.877 580.648 488.381C580.841 488.881 581.123 489.273 581.494 489.557C581.866 489.837 582.32 489.977 582.858 489.977C583.419 489.977 583.886 489.83 584.261 489.534C584.64 489.235 584.924 488.833 585.114 488.33C585.307 487.822 585.403 487.258 585.403 486.636C585.403 486.023 585.309 485.47 585.119 484.977C584.934 484.481 584.652 484.089 584.273 483.801C583.898 483.509 583.426 483.364 582.858 483.364C582.313 483.364 581.854 483.502 581.483 483.778C581.112 484.051 580.831 484.434 580.642 484.926C580.453 485.415 580.358 485.985 580.358 486.636ZM592.335 491.182C591.547 491.182 590.856 490.994 590.261 490.619C589.67 490.244 589.208 489.72 588.875 489.045C588.545 488.371 588.381 487.583 588.381 486.682C588.381 485.773 588.545 484.979 588.875 484.301C589.208 483.623 589.67 483.097 590.261 482.722C590.856 482.347 591.547 482.159 592.335 482.159C593.123 482.159 593.813 482.347 594.403 482.722C594.998 483.097 595.46 483.623 595.79 484.301C596.123 484.979 596.29 485.773 596.29 486.682C596.29 487.583 596.123 488.371 595.79 489.045C595.46 489.72 594.998 490.244 594.403 490.619C593.813 490.994 593.123 491.182 592.335 491.182ZM592.335 489.977C592.934 489.977 593.426 489.824 593.812 489.517C594.199 489.21 594.485 488.807 594.67 488.307C594.856 487.807 594.949 487.265 594.949 486.682C594.949 486.098 594.856 485.555 594.67 485.051C594.485 484.547 594.199 484.14 593.812 483.83C593.426 483.519 592.934 483.364 592.335 483.364C591.737 483.364 591.244 483.519 590.858 483.83C590.472 484.14 590.186 484.547 590 485.051C589.814 485.555 589.722 486.098 589.722 486.682C589.722 487.265 589.814 487.807 590 488.307C590.186 488.807 590.472 489.21 590.858 489.517C591.244 489.824 591.737 489.977 592.335 489.977ZM599.678 485.75V491H598.337V482.273H599.632V483.636H599.746C599.95 483.193 600.261 482.837 600.678 482.568C601.094 482.295 601.632 482.159 602.291 482.159C602.882 482.159 603.399 482.28 603.842 482.523C604.286 482.761 604.63 483.125 604.876 483.614C605.123 484.098 605.246 484.712 605.246 485.455V491H603.905V485.545C603.905 484.86 603.727 484.326 603.371 483.943C603.015 483.557 602.526 483.364 601.905 483.364C601.477 483.364 601.094 483.456 600.757 483.642C600.424 483.828 600.161 484.098 599.967 484.455C599.774 484.811 599.678 485.242 599.678 485.75ZM613.878 484.227L612.673 484.568C612.598 484.367 612.486 484.172 612.338 483.983C612.194 483.79 611.997 483.631 611.747 483.506C611.497 483.381 611.177 483.318 610.787 483.318C610.253 483.318 609.808 483.441 609.452 483.688C609.099 483.93 608.923 484.239 608.923 484.614C608.923 484.947 609.045 485.21 609.287 485.403C609.529 485.597 609.908 485.758 610.423 485.886L611.719 486.205C612.499 486.394 613.08 486.684 613.463 487.074C613.846 487.46 614.037 487.958 614.037 488.568C614.037 489.068 613.893 489.515 613.605 489.909C613.321 490.303 612.923 490.614 612.412 490.841C611.901 491.068 611.306 491.182 610.628 491.182C609.738 491.182 609.001 490.989 608.418 490.602C607.834 490.216 607.465 489.652 607.31 488.909L608.582 488.591C608.704 489.061 608.933 489.413 609.27 489.648C609.611 489.883 610.056 490 610.605 490C611.23 490 611.726 489.867 612.094 489.602C612.465 489.333 612.651 489.011 612.651 488.636C612.651 488.333 612.545 488.08 612.332 487.875C612.12 487.667 611.795 487.511 611.355 487.409L609.901 487.068C609.101 486.879 608.514 486.585 608.139 486.188C607.768 485.786 607.582 485.284 607.582 484.682C607.582 484.189 607.721 483.754 607.997 483.375C608.277 482.996 608.658 482.699 609.139 482.483C609.624 482.267 610.173 482.159 610.787 482.159C611.651 482.159 612.329 482.348 612.821 482.727C613.317 483.106 613.67 483.606 613.878 484.227ZM618.624 491.205C618.071 491.205 617.569 491.1 617.118 490.892C616.667 490.68 616.309 490.375 616.044 489.977C615.779 489.576 615.646 489.091 615.646 488.523C615.646 488.023 615.745 487.617 615.942 487.307C616.139 486.992 616.402 486.746 616.732 486.568C617.061 486.39 617.425 486.258 617.822 486.17C618.224 486.08 618.627 486.008 619.033 485.955C619.563 485.886 619.993 485.835 620.322 485.801C620.656 485.763 620.898 485.701 621.05 485.614C621.205 485.527 621.283 485.375 621.283 485.159V485.114C621.283 484.553 621.129 484.117 620.822 483.807C620.519 483.496 620.059 483.341 619.442 483.341C618.802 483.341 618.3 483.481 617.936 483.761C617.572 484.042 617.317 484.341 617.169 484.659L615.896 484.205C616.124 483.674 616.427 483.261 616.805 482.966C617.188 482.667 617.605 482.458 618.055 482.341C618.51 482.22 618.957 482.159 619.396 482.159C619.677 482.159 619.999 482.193 620.362 482.261C620.73 482.326 621.084 482.46 621.425 482.665C621.769 482.869 622.055 483.178 622.283 483.591C622.51 484.004 622.624 484.557 622.624 485.25V491H621.283V489.818H621.214C621.124 490.008 620.972 490.21 620.76 490.426C620.548 490.642 620.266 490.826 619.913 490.977C619.561 491.129 619.131 491.205 618.624 491.205ZM618.828 490C619.358 490 619.805 489.896 620.169 489.688C620.536 489.479 620.813 489.21 620.999 488.881C621.188 488.551 621.283 488.205 621.283 487.841V486.614C621.226 486.682 621.101 486.744 620.908 486.801C620.718 486.854 620.499 486.902 620.249 486.943C620.002 486.981 619.762 487.015 619.527 487.045C619.296 487.072 619.108 487.095 618.964 487.114C618.616 487.159 618.29 487.233 617.987 487.335C617.688 487.434 617.446 487.583 617.26 487.784C617.078 487.981 616.987 488.25 616.987 488.591C616.987 489.057 617.16 489.409 617.504 489.648C617.853 489.883 618.294 490 618.828 490ZM625.253 491V479.364H626.594V483.659H626.707C626.806 483.508 626.942 483.314 627.116 483.08C627.295 482.841 627.548 482.629 627.878 482.443C628.211 482.254 628.662 482.159 629.23 482.159C629.965 482.159 630.613 482.343 631.173 482.71C631.734 483.078 632.171 483.598 632.486 484.273C632.8 484.947 632.957 485.742 632.957 486.659C632.957 487.583 632.8 488.384 632.486 489.062C632.171 489.737 631.736 490.259 631.179 490.631C630.622 490.998 629.98 491.182 629.253 491.182C628.692 491.182 628.243 491.089 627.906 490.903C627.569 490.714 627.31 490.5 627.128 490.261C626.946 490.019 626.806 489.818 626.707 489.659H626.548V491H625.253ZM626.571 486.636C626.571 487.295 626.668 487.877 626.861 488.381C627.054 488.881 627.336 489.273 627.707 489.557C628.079 489.837 628.533 489.977 629.071 489.977C629.632 489.977 630.099 489.83 630.474 489.534C630.853 489.235 631.137 488.833 631.327 488.33C631.52 487.822 631.616 487.258 631.616 486.636C631.616 486.023 631.522 485.47 631.332 484.977C631.147 484.481 630.865 484.089 630.486 483.801C630.111 483.509 629.639 483.364 629.071 483.364C628.526 483.364 628.067 483.502 627.696 483.778C627.325 484.051 627.045 484.434 626.855 484.926C626.666 485.415 626.571 485.985 626.571 486.636ZM635.009 491V482.273H636.349V491H635.009ZM635.69 480.818C635.429 480.818 635.204 480.729 635.014 480.551C634.829 480.373 634.736 480.159 634.736 479.909C634.736 479.659 634.829 479.445 635.014 479.267C635.204 479.089 635.429 479 635.69 479C635.952 479 636.175 479.089 636.361 479.267C636.55 479.445 636.645 479.659 636.645 479.909C636.645 480.159 636.55 480.373 636.361 480.551C636.175 480.729 635.952 480.818 635.69 480.818ZM640.146 479.364V491H638.805V479.364H640.146ZM642.602 491V482.273H643.943V491H642.602ZM643.284 480.818C643.023 480.818 642.797 480.729 642.608 480.551C642.422 480.373 642.33 480.159 642.33 479.909C642.33 479.659 642.422 479.445 642.608 479.267C642.797 479.089 643.023 479 643.284 479C643.545 479 643.769 479.089 643.955 479.267C644.144 479.445 644.239 479.659 644.239 479.909C644.239 480.159 644.144 480.373 643.955 480.551C643.769 480.729 643.545 480.818 643.284 480.818ZM649.695 491.182C648.967 491.182 648.325 490.998 647.768 490.631C647.212 490.259 646.776 489.737 646.462 489.062C646.147 488.384 645.99 487.583 645.99 486.659C645.99 485.742 646.147 484.947 646.462 484.273C646.776 483.598 647.214 483.078 647.774 482.71C648.335 482.343 648.982 482.159 649.717 482.159C650.286 482.159 650.734 482.254 651.064 482.443C651.397 482.629 651.651 482.841 651.825 483.08C652.003 483.314 652.142 483.508 652.24 483.659H652.354V479.364H653.695V491H652.399V489.659H652.24C652.142 489.818 652.001 490.019 651.82 490.261C651.638 490.5 651.378 490.714 651.041 490.903C650.704 491.089 650.255 491.182 649.695 491.182ZM649.876 489.977C650.414 489.977 650.869 489.837 651.24 489.557C651.611 489.273 651.893 488.881 652.087 488.381C652.28 487.877 652.376 487.295 652.376 486.636C652.376 485.985 652.282 485.415 652.092 484.926C651.903 484.434 651.623 484.051 651.251 483.778C650.88 483.502 650.422 483.364 649.876 483.364C649.308 483.364 648.835 483.509 648.456 483.801C648.081 484.089 647.799 484.481 647.609 484.977C647.424 485.47 647.331 486.023 647.331 486.636C647.331 487.258 647.426 487.822 647.615 488.33C647.808 488.833 648.092 489.235 648.467 489.534C648.846 489.83 649.316 489.977 649.876 489.977ZM658.905 491.205C658.352 491.205 657.85 491.1 657.399 490.892C656.948 490.68 656.59 490.375 656.325 489.977C656.06 489.576 655.928 489.091 655.928 488.523C655.928 488.023 656.026 487.617 656.223 487.307C656.42 486.992 656.683 486.746 657.013 486.568C657.342 486.39 657.706 486.258 658.104 486.17C658.505 486.08 658.909 486.008 659.314 485.955C659.844 485.886 660.274 485.835 660.604 485.801C660.937 485.763 661.179 485.701 661.331 485.614C661.486 485.527 661.564 485.375 661.564 485.159V485.114C661.564 484.553 661.411 484.117 661.104 483.807C660.801 483.496 660.34 483.341 659.723 483.341C659.083 483.341 658.581 483.481 658.217 483.761C657.854 484.042 657.598 484.341 657.45 484.659L656.178 484.205C656.405 483.674 656.708 483.261 657.087 482.966C657.469 482.667 657.886 482.458 658.337 482.341C658.791 482.22 659.238 482.159 659.678 482.159C659.958 482.159 660.28 482.193 660.643 482.261C661.011 482.326 661.365 482.46 661.706 482.665C662.051 482.869 662.337 483.178 662.564 483.591C662.791 484.004 662.905 484.557 662.905 485.25V491H661.564V489.818H661.496C661.405 490.008 661.253 490.21 661.041 490.426C660.829 490.642 660.547 490.826 660.195 490.977C659.842 491.129 659.412 491.205 658.905 491.205ZM659.109 490C659.64 490 660.087 489.896 660.45 489.688C660.818 489.479 661.094 489.21 661.28 488.881C661.469 488.551 661.564 488.205 661.564 487.841V486.614C661.507 486.682 661.382 486.744 661.189 486.801C661 486.854 660.78 486.902 660.53 486.943C660.284 486.981 660.043 487.015 659.808 487.045C659.577 487.072 659.39 487.095 659.246 487.114C658.897 487.159 658.571 487.233 658.268 487.335C657.969 487.434 657.727 487.583 657.541 487.784C657.359 487.981 657.268 488.25 657.268 488.591C657.268 489.057 657.441 489.409 657.786 489.648C658.134 489.883 658.575 490 659.109 490ZM668.648 491.182C667.92 491.182 667.278 490.998 666.722 490.631C666.165 490.259 665.729 489.737 665.415 489.062C665.1 488.384 664.943 487.583 664.943 486.659C664.943 485.742 665.1 484.947 665.415 484.273C665.729 483.598 666.167 483.078 666.727 482.71C667.288 482.343 667.936 482.159 668.67 482.159C669.239 482.159 669.688 482.254 670.017 482.443C670.35 482.629 670.604 482.841 670.778 483.08C670.956 483.314 671.095 483.508 671.193 483.659H671.307V479.364H672.648V491H671.352V489.659H671.193C671.095 489.818 670.955 490.019 670.773 490.261C670.591 490.5 670.331 490.714 669.994 490.903C669.657 491.089 669.208 491.182 668.648 491.182ZM668.83 489.977C669.367 489.977 669.822 489.837 670.193 489.557C670.564 489.273 670.847 488.881 671.04 488.381C671.233 487.877 671.33 487.295 671.33 486.636C671.33 485.985 671.235 485.415 671.045 484.926C670.856 484.434 670.576 484.051 670.205 483.778C669.833 483.502 669.375 483.364 668.83 483.364C668.261 483.364 667.788 483.509 667.409 483.801C667.034 484.089 666.752 484.481 666.562 484.977C666.377 485.47 666.284 486.023 666.284 486.636C666.284 487.258 666.379 487.822 666.568 488.33C666.761 488.833 667.045 489.235 667.42 489.534C667.799 489.83 668.269 489.977 668.83 489.977Z" fill="#F5F5F5"/>
<path d="M82.4659 481H80.7045C80.6004 480.493 80.4181 480.048 80.1577 479.665C79.902 479.281 79.5895 478.959 79.2202 478.699C78.8556 478.434 78.4508 478.235 78.0057 478.102C77.5606 477.97 77.0966 477.903 76.6136 477.903C75.733 477.903 74.9351 478.126 74.2202 478.571C73.5099 479.016 72.9441 479.672 72.5227 480.538C72.1061 481.405 71.8977 482.468 71.8977 483.727C71.8977 484.987 72.1061 486.05 72.5227 486.916C72.9441 487.783 73.5099 488.438 74.2202 488.884C74.9351 489.329 75.733 489.551 76.6136 489.551C77.0966 489.551 77.5606 489.485 78.0057 489.352C78.4508 489.22 78.8556 489.023 79.2202 488.763C79.5895 488.498 79.902 488.173 80.1577 487.79C80.4181 487.402 80.6004 486.956 80.7045 486.455H82.4659C82.3333 487.198 82.0919 487.863 81.7415 488.45C81.3911 489.037 80.9555 489.537 80.4347 489.949C79.9138 490.356 79.3291 490.666 78.6804 490.879C78.0365 491.092 77.3475 491.199 76.6136 491.199C75.3731 491.199 74.2699 490.896 73.304 490.29C72.3381 489.684 71.5781 488.822 71.0241 487.705C70.4702 486.587 70.1932 485.261 70.1932 483.727C70.1932 482.193 70.4702 480.867 71.0241 479.75C71.5781 478.633 72.3381 477.771 73.304 477.165C74.2699 476.559 75.3731 476.256 76.6136 476.256C77.3475 476.256 78.0365 476.362 78.6804 476.575C79.3291 476.788 79.9138 477.101 80.4347 477.513C80.9555 477.92 81.3911 478.417 81.7415 479.004C82.0919 479.587 82.3333 480.252 82.4659 481ZM89.5167 491.227C88.5318 491.227 87.6677 490.993 86.9244 490.524C86.1857 490.055 85.6081 489.4 85.1914 488.557C84.7795 487.714 84.5735 486.729 84.5735 485.602C84.5735 484.466 84.7795 483.474 85.1914 482.626C85.6081 481.779 86.1857 481.121 86.9244 480.652C87.6677 480.183 88.5318 479.949 89.5167 479.949C90.5015 479.949 91.3633 480.183 92.1019 480.652C92.8453 481.121 93.4229 481.779 93.8349 482.626C94.2515 483.474 94.4599 484.466 94.4599 485.602C94.4599 486.729 94.2515 487.714 93.8349 488.557C93.4229 489.4 92.8453 490.055 92.1019 490.524C91.3633 490.993 90.5015 491.227 89.5167 491.227ZM89.5167 489.722C90.2648 489.722 90.8803 489.53 91.3633 489.146C91.8462 488.763 92.2037 488.259 92.4357 487.634C92.6677 487.009 92.7837 486.331 92.7837 485.602C92.7837 484.873 92.6677 484.194 92.4357 483.564C92.2037 482.934 91.8462 482.425 91.3633 482.037C90.8803 481.649 90.2648 481.455 89.5167 481.455C88.7686 481.455 88.1531 481.649 87.6701 482.037C87.1871 482.425 86.8297 482.934 86.5977 483.564C86.3656 484.194 86.2496 484.873 86.2496 485.602C86.2496 486.331 86.3656 487.009 86.5977 487.634C86.8297 488.259 87.1871 488.763 87.6701 489.146C88.1531 489.53 88.7686 489.722 89.5167 489.722ZM97.0185 491V480.091H98.6378V481.795H98.7798C99.0071 481.213 99.3741 480.761 99.8807 480.439C100.387 480.112 100.996 479.949 101.706 479.949C102.426 479.949 103.025 480.112 103.503 480.439C103.986 480.761 104.362 481.213 104.632 481.795H104.746C105.025 481.232 105.444 480.785 106.003 480.453C106.562 480.117 107.232 479.949 108.013 479.949C108.988 479.949 109.786 480.254 110.406 480.865C111.027 481.471 111.337 482.416 111.337 483.699V491H109.661V483.699C109.661 482.894 109.44 482.319 109 481.973C108.56 481.627 108.041 481.455 107.445 481.455C106.678 481.455 106.083 481.687 105.662 482.151C105.241 482.61 105.03 483.192 105.03 483.898V491H103.325V483.528C103.325 482.908 103.124 482.409 102.722 482.03C102.319 481.646 101.801 481.455 101.166 481.455C100.731 481.455 100.323 481.571 99.9446 481.803C99.5705 482.035 99.2675 482.357 99.0355 482.768C98.8082 483.176 98.6946 483.647 98.6946 484.182V491H97.0185ZM114.401 495.091V480.091H116.021V481.824H116.219C116.343 481.634 116.513 481.393 116.731 481.099C116.953 480.801 117.271 480.536 117.683 480.304C118.099 480.067 118.663 479.949 119.373 479.949C120.291 479.949 121.101 480.179 121.802 480.638C122.503 481.097 123.049 481.748 123.442 482.591C123.835 483.434 124.032 484.428 124.032 485.574C124.032 486.729 123.835 487.731 123.442 488.578C123.049 489.421 122.505 490.074 121.809 490.538C121.113 490.998 120.31 491.227 119.401 491.227C118.701 491.227 118.139 491.111 117.718 490.879C117.297 490.643 116.972 490.375 116.745 490.077C116.518 489.774 116.343 489.523 116.219 489.324H116.077V495.091H114.401ZM116.049 485.545C116.049 486.369 116.17 487.096 116.411 487.726C116.653 488.351 117.005 488.841 117.469 489.196C117.933 489.546 118.502 489.722 119.174 489.722C119.875 489.722 120.46 489.537 120.928 489.168C121.402 488.794 121.757 488.292 121.994 487.662C122.235 487.027 122.356 486.322 122.356 485.545C122.356 484.778 122.237 484.087 122.001 483.472C121.769 482.851 121.416 482.361 120.942 482.001C120.474 481.637 119.884 481.455 119.174 481.455C118.492 481.455 117.919 481.627 117.455 481.973C116.991 482.314 116.641 482.792 116.404 483.408C116.167 484.018 116.049 484.731 116.049 485.545ZM126.589 491V480.091H128.208V481.739H128.322C128.521 481.199 128.88 480.761 129.401 480.425C129.922 480.089 130.509 479.92 131.163 479.92C131.286 479.92 131.44 479.923 131.624 479.928C131.809 479.932 131.949 479.939 132.043 479.949V481.653C131.987 481.639 131.856 481.618 131.653 481.589C131.454 481.556 131.243 481.54 131.021 481.54C130.49 481.54 130.017 481.651 129.6 481.874C129.188 482.091 128.862 482.394 128.62 482.783C128.383 483.166 128.265 483.604 128.265 484.097V491H126.589ZM138.13 491.227C137.145 491.227 136.281 490.993 135.538 490.524C134.799 490.055 134.221 489.4 133.805 488.557C133.393 487.714 133.187 486.729 133.187 485.602C133.187 484.466 133.393 483.474 133.805 482.626C134.221 481.779 134.799 481.121 135.538 480.652C136.281 480.183 137.145 479.949 138.13 479.949C139.115 479.949 139.977 480.183 140.715 480.652C141.459 481.121 142.036 481.779 142.448 482.626C142.865 483.474 143.073 484.466 143.073 485.602C143.073 486.729 142.865 487.714 142.448 488.557C142.036 489.4 141.459 490.055 140.715 490.524C139.977 490.993 139.115 491.227 138.13 491.227ZM138.13 489.722C138.878 489.722 139.494 489.53 139.977 489.146C140.46 488.763 140.817 488.259 141.049 487.634C141.281 487.009 141.397 486.331 141.397 485.602C141.397 484.873 141.281 484.194 141.049 483.564C140.817 482.934 140.46 482.425 139.977 482.037C139.494 481.649 138.878 481.455 138.13 481.455C137.382 481.455 136.766 481.649 136.283 482.037C135.8 482.425 135.443 482.934 135.211 483.564C134.979 484.194 134.863 484.873 134.863 485.602C134.863 486.331 134.979 487.009 135.211 487.634C135.443 488.259 135.8 488.763 136.283 489.146C136.766 489.53 137.382 489.722 138.13 489.722ZM145.632 491V480.091H147.251V481.795H147.393C147.62 481.213 147.987 480.761 148.494 480.439C149.001 480.112 149.609 479.949 150.319 479.949C151.039 479.949 151.638 480.112 152.116 480.439C152.599 480.761 152.975 481.213 153.245 481.795H153.359C153.638 481.232 154.057 480.785 154.616 480.453C155.175 480.117 155.845 479.949 156.626 479.949C157.601 479.949 158.399 480.254 159.02 480.865C159.64 481.471 159.95 482.416 159.95 483.699V491H158.274V483.699C158.274 482.894 158.054 482.319 157.613 481.973C157.173 481.627 156.654 481.455 156.058 481.455C155.291 481.455 154.697 481.687 154.275 482.151C153.854 482.61 153.643 483.192 153.643 483.898V491H151.939V483.528C151.939 482.908 151.737 482.409 151.335 482.03C150.932 481.646 150.414 481.455 149.779 481.455C149.344 481.455 148.937 481.571 148.558 481.803C148.184 482.035 147.881 482.357 147.649 482.768C147.422 483.176 147.308 483.647 147.308 484.182V491H145.632ZM163.015 491V480.091H164.691V491H163.015ZM163.867 478.273C163.54 478.273 163.258 478.161 163.022 477.939C162.79 477.716 162.674 477.449 162.674 477.136C162.674 476.824 162.79 476.556 163.022 476.334C163.258 476.111 163.54 476 163.867 476C164.194 476 164.473 476.111 164.705 476.334C164.942 476.556 165.06 476.824 165.06 477.136C165.06 477.449 164.942 477.716 164.705 477.939C164.473 478.161 164.194 478.273 163.867 478.273ZM175.488 482.534L173.982 482.96C173.888 482.709 173.748 482.465 173.563 482.229C173.383 481.987 173.137 481.788 172.825 481.632C172.512 481.476 172.112 481.398 171.624 481.398C170.957 481.398 170.4 481.552 169.955 481.859C169.515 482.162 169.295 482.548 169.295 483.017C169.295 483.434 169.446 483.763 169.749 484.004C170.052 484.246 170.526 484.447 171.17 484.608L172.789 485.006C173.764 485.242 174.491 485.605 174.969 486.092C175.448 486.575 175.687 487.198 175.687 487.96C175.687 488.585 175.507 489.144 175.147 489.636C174.792 490.129 174.295 490.517 173.656 490.801C173.016 491.085 172.273 491.227 171.425 491.227C170.313 491.227 169.392 490.986 168.663 490.503C167.933 490.02 167.472 489.314 167.278 488.386L168.869 487.989C169.02 488.576 169.307 489.016 169.728 489.31C170.154 489.603 170.71 489.75 171.397 489.75C172.178 489.75 172.799 489.584 173.258 489.253C173.722 488.917 173.954 488.514 173.954 488.045C173.954 487.667 173.821 487.349 173.556 487.094C173.291 486.833 172.884 486.639 172.335 486.511L170.516 486.085C169.517 485.848 168.783 485.482 168.315 484.984C167.851 484.482 167.619 483.855 167.619 483.102C167.619 482.487 167.791 481.942 168.137 481.469C168.487 480.995 168.963 480.624 169.565 480.354C170.171 480.084 170.857 479.949 171.624 479.949C172.704 479.949 173.551 480.186 174.167 480.659C174.787 481.133 175.228 481.758 175.488 482.534ZM182.642 491.227C181.657 491.227 180.793 490.993 180.049 490.524C179.311 490.055 178.733 489.4 178.316 488.557C177.904 487.714 177.699 486.729 177.699 485.602C177.699 484.466 177.904 483.474 178.316 482.626C178.733 481.779 179.311 481.121 180.049 480.652C180.793 480.183 181.657 479.949 182.642 479.949C183.627 479.949 184.488 480.183 185.227 480.652C185.97 481.121 186.548 481.779 186.96 482.626C187.377 483.474 187.585 484.466 187.585 485.602C187.585 486.729 187.377 487.714 186.96 488.557C186.548 489.4 185.97 490.055 185.227 490.524C184.488 490.993 183.627 491.227 182.642 491.227ZM182.642 489.722C183.39 489.722 184.005 489.53 184.488 489.146C184.971 488.763 185.329 488.259 185.561 487.634C185.793 487.009 185.909 486.331 185.909 485.602C185.909 484.873 185.793 484.194 185.561 483.564C185.329 482.934 184.971 482.425 184.488 482.037C184.005 481.649 183.39 481.455 182.642 481.455C181.894 481.455 181.278 481.649 180.795 482.037C180.312 482.425 179.955 482.934 179.723 483.564C179.491 484.194 179.375 484.873 179.375 485.602C179.375 486.331 179.491 487.009 179.723 487.634C179.955 488.259 180.312 488.763 180.795 489.146C181.278 489.53 181.894 489.722 182.642 489.722Z" fill="#F5F5F5"/>
</svg>
